<svg xmlns="http://www.w3.org/2000/svg" version="1.1" xmlns:xlink="http://www.w3.org/1999/xlink" xmlns:svgjs="http://svgjs.dev/svgjs" viewBox="0 0 800 800"><defs><linearGradient x1="50%" y1="0%" x2="50%" y2="100%" id="ffflurry-grad" gradientTransform="rotate(270)"><stop stop-color="#11002E" stop-opacity="1" offset="0%"></stop><stop stop-color="hsl(1.4, 100%, 67%)" stop-opacity="1" offset="45%"></stop><stop stop-color="hsl(167, 52%, 78%)" stop-opacity="1" offset="100%"></stop></linearGradient></defs><rect width="100%" height="100%" fill="#11002e"></rect><g fill="url(#ffflurry-grad)"><rect width="69" height="3" x="578.5" y="504.5" rx="1.5" transform="rotate(45, 613, 506)" opacity="0.59"></rect><rect width="417" height="3" x="450.5" y="764.5" rx="1.5" transform="rotate(45, 659, 766)" opacity="0.67"></rect><rect width="183" height="3" x="-54.5" y="319.5" rx="1.5" transform="rotate(45, 37, 321)" opacity="0.90"></rect><rect width="215" height="3" x="463.5" y="78.5" rx="1.5" transform="rotate(45, 571, 80)" opacity="0.84"></rect><rect width="371" height="3" x="111.5" y="629.5" rx="1.5" transform="rotate(45, 297, 631)" opacity="0.19"></rect><rect width="324" height="3" x="520" y="46.5" rx="1.5" transform="rotate(45, 682, 48)" opacity="0.75"></rect><rect width="428" height="3" x="239" y="393.5" rx="1.5" transform="rotate(45, 453, 395)" opacity="0.78"></rect><rect width="580" height="3" x="-172" y="287.5" rx="1.5" transform="rotate(45, 118, 289)" opacity="0.33"></rect><rect width="427" height="3" x="4.5" y="624.5" rx="1.5" transform="rotate(45, 218, 626)" opacity="0.82"></rect><rect width="306" height="3" x="159" y="297.5" rx="1.5" transform="rotate(45, 312, 299)" opacity="0.82"></rect><rect width="225" height="3" x="589.5" y="478.5" rx="1.5" transform="rotate(45, 702, 480)" opacity="0.97"></rect><rect width="622" height="3" x="-115" y="243.5" rx="1.5" transform="rotate(45, 196, 245)" opacity="0.63"></rect><rect width="445" height="3" x="-44.5" y="41.5" rx="1.5" transform="rotate(45, 178, 43)" opacity="0.51"></rect><rect width="535" height="3" x="165.5" y="313.5" rx="1.5" transform="rotate(45, 433, 315)" opacity="0.13"></rect><rect width="357" height="3" x="452.5" y="35.5" rx="1.5" transform="rotate(45, 631, 37)" opacity="0.51"></rect><rect width="75" height="3" x="309.5" y="756.5" rx="1.5" transform="rotate(45, 347, 758)" opacity="0.77"></rect><rect width="529" height="3" x="241.5" y="295.5" rx="1.5" transform="rotate(45, 506, 297)" opacity="0.80"></rect><rect width="198" height="3" x="264" y="663.5" rx="1.5" transform="rotate(45, 363, 665)" opacity="0.96"></rect><rect width="211" height="3" x="-56.5" y="491.5" rx="1.5" transform="rotate(45, 49, 493)" opacity="0.23"></rect><rect width="585" height="3" x="74.5" y="380.5" rx="1.5" transform="rotate(45, 367, 382)" opacity="0.68"></rect><rect width="187" height="3" x="504.5" y="256.5" rx="1.5" transform="rotate(45, 598, 258)" opacity="0.58"></rect><rect width="353" height="3" x="577.5" y="290.5" rx="1.5" transform="rotate(45, 754, 292)" opacity="0.26"></rect><rect width="96" height="3" x="271" y="111.5" rx="1.5" transform="rotate(45, 319, 113)" opacity="0.45"></rect><rect width="534" height="3" x="-94" y="479.5" rx="1.5" transform="rotate(45, 173, 481)" opacity="0.64"></rect><rect width="35" height="3" x="699.5" y="102.5" rx="1.5" transform="rotate(45, 717, 104)" opacity="0.27"></rect><rect width="62" height="3" x="740" y="451.5" rx="1.5" transform="rotate(45, 771, 453)" opacity="0.45"></rect><rect width="470" height="3" x="278" y="703.5" rx="1.5" transform="rotate(45, 513, 705)" opacity="0.43"></rect><rect width="172" height="3" x="268" y="26.5" rx="1.5" transform="rotate(45, 354, 28)" opacity="0.49"></rect><rect width="477" height="3" x="173.5" y="48.5" rx="1.5" transform="rotate(45, 412, 50)" opacity="0.53"></rect><rect width="56" height="3" x="564" y="182.5" rx="1.5" transform="rotate(45, 592, 184)" opacity="0.44"></rect><rect width="53" height="3" x="269.5" y="460.5" rx="1.5" transform="rotate(45, 296, 462)" opacity="0.36"></rect><rect width="90" height="3" x="513" y="20.5" rx="1.5" transform="rotate(45, 558, 22)" opacity="0.53"></rect><rect width="71" height="3" x="539.5" y="322.5" rx="1.5" transform="rotate(45, 575, 324)" opacity="0.84"></rect><rect width="242" height="3" x="654" y="52.5" rx="1.5" transform="rotate(45, 775, 54)" opacity="0.61"></rect><rect width="630" height="3" x="-47" y="733.5" rx="1.5" transform="rotate(45, 268, 735)" opacity="0.61"></rect><rect width="462" height="3" x="-22" y="350.5" rx="1.5" transform="rotate(45, 209, 352)" opacity="0.18"></rect><rect width="330" height="3" x="194" y="501.5" rx="1.5" transform="rotate(45, 359, 503)" opacity="0.79"></rect><rect width="243" height="3" x="-71.5" y="577.5" rx="1.5" transform="rotate(45, 50, 579)" opacity="0.17"></rect><rect width="222" height="3" x="409" y="217.5" rx="1.5" transform="rotate(45, 520, 219)" opacity="0.15"></rect><rect width="84" height="3" x="-11" y="382.5" rx="1.5" transform="rotate(45, 31, 384)" opacity="0.38"></rect><rect width="160" height="3" x="91" y="768.5" rx="1.5" transform="rotate(45, 171, 770)" opacity="0.34"></rect><rect width="63" height="3" x="91.5" y="381.5" rx="1.5" transform="rotate(45, 123, 383)" opacity="0.63"></rect><rect width="409" height="3" x="231.5" y="763.5" rx="1.5" transform="rotate(45, 436, 765)" opacity="0.77"></rect><rect width="148" height="3" x="78" y="162.5" rx="1.5" transform="rotate(45, 152, 164)" opacity="0.16"></rect><rect width="185" height="3" x="575.5" y="271.5" rx="1.5" transform="rotate(45, 668, 273)" opacity="0.92"></rect><rect width="94" height="3" x="679" y="721.5" rx="1.5" transform="rotate(45, 726, 723)" opacity="0.47"></rect><rect width="491" height="3" x="-207.5" y="95.5" rx="1.5" transform="rotate(45, 38, 97)" opacity="0.98"></rect><rect width="535" height="3" x="3.5" y="36.5" rx="1.5" transform="rotate(45, 271, 38)" opacity="0.77"></rect><rect width="125" height="3" x="358.5" y="219.5" rx="1.5" transform="rotate(45, 421, 221)" opacity="0.60"></rect><rect width="43" height="3" x="80.5" y="60.5" rx="1.5" transform="rotate(45, 102, 62)" opacity="0.23"></rect><rect width="49" height="3" x="495.5" y="516.5" rx="1.5" transform="rotate(45, 520, 518)" opacity="0.46"></rect><rect width="155" height="3" x="619.5" y="574.5" rx="1.5" transform="rotate(45, 697, 576)" opacity="0.22"></rect><rect width="468" height="3" x="201" y="676.5" rx="1.5" transform="rotate(45, 435, 678)" opacity="0.58"></rect><rect width="330" height="3" x="581" y="174.5" rx="1.5" transform="rotate(45, 746, 176)" opacity="0.53"></rect><rect width="258" height="3" x="392" y="608.5" rx="1.5" transform="rotate(45, 521, 610)" opacity="0.37"></rect><rect width="113" height="3" x="490.5" y="764.5" rx="1.5" transform="rotate(45, 547, 766)" opacity="0.31"></rect><rect width="345" height="3" x="-10.5" y="695.5" rx="1.5" transform="rotate(45, 162, 697)" opacity="0.97"></rect><rect width="187" height="3" x="169.5" y="540.5" rx="1.5" transform="rotate(45, 263, 542)" opacity="0.66"></rect><rect width="431" height="3" x="317.5" y="412.5" rx="1.5" transform="rotate(45, 533, 414)" opacity="0.44"></rect><rect width="277" height="3" x="627.5" y="646.5" rx="1.5" transform="rotate(45, 766, 648)" opacity="0.15"></rect><rect width="66" height="3" x="240" y="399.5" rx="1.5" transform="rotate(45, 273, 401)" opacity="0.10"></rect><rect width="58" height="3" x="466" y="116.5" rx="1.5" transform="rotate(45, 495, 118)" opacity="0.50"></rect><rect width="497" height="3" x="55.5" y="205.5" rx="1.5" transform="rotate(45, 304, 207)" opacity="0.42"></rect><rect width="177" height="3" x="523.5" y="384.5" rx="1.5" transform="rotate(45, 612, 386)" opacity="0.66"></rect><rect width="296" height="3" x="88" y="123.5" rx="1.5" transform="rotate(45, 236, 125)" opacity="0.79"></rect><rect width="320" height="3" x="-97" y="432.5" rx="1.5" transform="rotate(45, 63, 434)" opacity="0.95"></rect><rect width="654" height="3" x="-274" y="722.5" rx="1.5" transform="rotate(45, 53, 724)" opacity="0.13"></rect><rect width="187" height="3" x="632.5" y="19.5" rx="1.5" transform="rotate(45, 726, 21)" opacity="0.38"></rect><rect width="403" height="3" x="490.5" y="385.5" rx="1.5" transform="rotate(45, 692, 387)" opacity="0.71"></rect><rect width="74" height="3" x="95" y="600.5" rx="1.5" transform="rotate(45, 132, 602)" opacity="0.18"></rect><rect width="357" height="3" x="-130.5" y="223.5" rx="1.5" transform="rotate(45, 48, 225)" opacity="0.42"></rect><rect width="612" height="3" x="129" y="477.5" rx="1.5" transform="rotate(45, 435, 479)" opacity="0.48"></rect><rect width="751" height="3" x="235.5" y="661.5" rx="1.5" transform="rotate(45, 611, 663)" opacity="0.53"></rect><rect width="307" height="3" x="481.5" y="132.5" rx="1.5" transform="rotate(45, 635, 134)" opacity="0.50"></rect><rect width="405" height="3" x="198.5" y="131.5" rx="1.5" transform="rotate(45, 401, 133)" opacity="0.72"></rect><rect width="141" height="3" x="328.5" y="577.5" rx="1.5" transform="rotate(45, 399, 579)" opacity="0.79"></rect><rect width="301" height="3" x="336.5" y="30.5" rx="1.5" transform="rotate(45, 487, 32)" opacity="0.90"></rect></g></svg>