<svg xmlns="http://www.w3.org/2000/svg" version="1.1" xmlns:xlink="http://www.w3.org/1999/xlink" viewBox="0 0 700 700" style="overflow: hidden; display: block;" width="700" height="700"><defs></defs><g id="two-0" transform="matrix(1 0 0 1 0 0)" opacity="1"><path transform="matrix(1 0 0 1 350 350)" id="two-52" d="M 280.744962 82.434158 C 272.240304 108.321557 257.476177 139.098547 232.172357 149.208114 C 194.046605 164.440392 141.737928 100.91672 109.808475 126.725735 C 82.382721 148.894348 119.727138 200.78995 106.655427 233.542809 C 95.106163 262.480978 74.667431 307.293002 43.694671 303.903116 C -2.903371 298.803083 -0.922322 219.738234 -25.889309 180.064094 C -36.33561 163.464252 -40.637901 134.479633 -60.007608 131.39833 C -122.760787 121.415655 -166.621263 289.311836 -214.010583 246.981378 C -264.201678 202.148236 -76.171819 128.909247 -110.705343 71.146003 C -136.327836 28.287985 -227.650292 113.230958 -261.908424 76.903251 C -279.401494 58.353404 -264.788748 23.307003 -254.450084 0 C -243.783046 -24.047278 -203.897327 -32.835367 -200.795286 -58.958816 C -195.989183 -99.432806 -262.686149 -126.54981 -260.220404 -167.233499 C -258.431963 -196.741978 -237.083616 -234.971847 -207.949389 -239.986388 C -150.931868 -249.800159 -118.317695 -159.744641 -63.935486 -139.999185 C -50.113704 -134.98068 -32.168466 -128.449778 -19.555008 -136.008064 C 23.294211 -161.684343 -10.288296 -278.098822 39.589206 -275.348981 C 78.767858 -273.188988 39.378018 -180.409842 73.73326 -161.45332 C 99.871557 -147.030741 131.041526 -185.981739 160.89334 -185.680814 C 190.968918 -185.377633 232.676537 -185.26982 248.196843 -159.506427 C 264.160315 -133.007388 223.063597 -97.683663 230.020657 -67.540159 C 236.311034 -40.285253 272.398306 -26.538936 281.234801 -0.000001 C 289.82879 25.810608 289.23562 56.589374 280.744962 82.434158 Z " fill="hsl(335, 77%, 50%)" stroke="undefined" stroke-width="1" stroke-opacity="1" fill-opacity="1" visibility="visible" stroke-linecap="butt" stroke-linejoin="miter" stroke-miterlimit="4"></path></g></svg>